<?xml version="1.0" standalone="no"?>
<!DOCTYPE svg PUBLIC "-//W3C//DTD SVG 20010904//EN"
 "http://www.w3.org/TR/2001/REC-SVG-20010904/DTD/svg10.dtd">
<svg version="1.0" xmlns="http://www.w3.org/2000/svg"
 width="594.000000pt" height="284.000000pt" viewBox="0 0 594.000000 284.000000"
 preserveAspectRatio="xMidYMid meet">
<metadata>
Created by potrace 1.16, written by Peter Selinger 2001-2019
</metadata>
<g transform="translate(0.000000,284.000000) scale(0.100000,-0.100000)"
fill="#000000" stroke="none">
<path d="M372 2309 l3 -271 760 1 c418 1 772 1 788 1 l27 0 0 270 0 270 -758
0 -757 0 3 -77 c2 -43 7 -81 11 -85 4 -4 7 0 7 10 1 25 12 86 20 105 7 19 78
24 89 8 3 -6 -4 -8 -15 -6 -11 2 -18 0 -15 -6 4 -5 12 -9 20 -9 9 0 12 -8 9
-26 -4 -22 -3 -24 16 -14 11 6 20 17 20 25 0 8 5 15 11 15 5 0 8 4 5 9 -10 16
48 20 77 6 23 -11 96 -15 344 -15 196 -1 319 2 326 9 12 9 50 8 246 -5 58 -4
81 -2 76 5 -4 7 8 11 34 11 23 0 41 -4 41 -10 0 -5 14 -10 31 -10 16 0 28 4
25 9 -3 5 3 11 14 14 11 3 23 1 26 -4 3 -5 13 -9 22 -9 13 0 14 2 4 9 -11 6
-10 10 3 15 37 14 40 -6 40 -251 l0 -238 -735 0 c-648 0 -735 2 -732 15 2 11
-1 11 -11 -2 -8 -10 -22 -18 -31 -18 -16 0 -17 20 -15 245 1 135 6 245 10 245
5 0 9 7 9 15 0 9 -9 15 -25 15 l-25 0 2 -271z"/>
<path d="M2585 1820 c-3 -5 -13 -10 -22 -10 -26 0 -100 -88 -117 -140 -9 -27
-16 -73 -16 -103 0 -53 -1 -55 -30 -60 l-30 -6 0 -76 0 -75 30 0 30 0 2 -192
3 -193 98 -3 97 -3 0 196 0 195 65 0 66 0 -3 78 -3 77 -62 3 -63 3 0 68 c0 78
3 81 81 81 l49 0 0 79 c0 63 -3 80 -16 85 -26 10 -152 7 -159 -4z"/>
<path d="M3550 1666 c0 -99 4 -167 10 -171 6 -3 10 -10 10 -15 0 -14 -44 -5
-75 16 -39 25 -185 26 -210 0 -9 -9 -21 -16 -26 -16 -15 0 -96 -85 -104 -109
-3 -11 -11 -21 -16 -21 -5 0 -9 -47 -9 -105 0 -123 7 -142 80 -223 8 -10 29
-24 45 -32 17 -8 33 -19 36 -24 10 -13 192 -11 197 3 2 6 12 11 23 11 10 0 19
5 19 10 0 6 9 10 20 10 13 0 20 -7 20 -20 0 -18 7 -20 84 -20 67 0 85 3 90 16
3 9 6 204 6 435 l0 419 -100 0 -100 0 0 -164z m-27 -340 c15 -13 27 -31 27
-40 0 -9 5 -16 10 -16 6 0 10 -16 10 -35 0 -19 -4 -35 -10 -35 -5 0 -10 -7
-10 -16 0 -18 -24 -44 -58 -61 -29 -15 -92 -17 -92 -3 0 6 -5 10 -10 10 -6 0
-22 12 -35 28 -18 20 -24 39 -25 75 0 47 5 58 44 97 30 30 112 28 149 -4z"/>
<path d="M4404 1808 c-3 -5 -10 -5 -16 -2 -7 5 -8 2 -3 -5 4 -8 18 -11 34 -8
36 8 46 -1 49 -46 2 -38 -21 -78 -36 -62 -4 4 -1 10 6 12 20 7 14 33 -8 33
-11 0 -21 -4 -21 -10 -1 -5 -2 -15 -3 -22 0 -6 -7 -13 -13 -15 -9 -3 -13 9
-13 41 l0 46 -204 0 c-135 0 -207 -4 -211 -11 -5 -7 54 -10 196 -8 l204 2 0
-30 c0 -20 -4 -29 -12 -26 -7 3 -13 0 -13 -6 0 -8 -54 -11 -176 -11 -171 0
-176 1 -171 20 4 14 0 20 -12 20 -11 0 -17 -9 -19 -30 l-2 -30 265 0 265 0 0
79 0 80 -41 -2 c-22 -1 -43 -5 -45 -9z"/>
<path d="M1912 1738 c-17 -17 -15 -35 4 -42 14 -5 15 -77 13 -676 -2 -658 -2
-671 -22 -681 -23 -13 -185 -18 -272 -8 -58 6 -125 -6 -125 -22 0 -5 99 -8
220 -8 l220 0 0 700 c0 459 3 699 10 699 6 0 10 11 10 25 0 26 -15 34 -23 13
-4 -10 -7 -10 -14 -1 -7 10 -12 10 -21 1z"/>
<path d="M2876 1594 c-3 -8 -11 -12 -17 -8 -7 4 -9 3 -5 -4 3 -6 -1 -17 -9
-25 -13 -13 -15 -60 -15 -306 l0 -291 95 0 95 0 0 296 c0 194 -3 293 -10 289
-6 -4 -10 5 -10 19 0 19 -5 26 -19 26 -11 0 -23 5 -26 10 -10 16 -72 12 -79
-6z"/>
<path d="M5300 1511 c-130 -21 -220 -133 -220 -275 0 -61 19 -146 33 -146 4 0
6 -4 3 -8 -3 -5 4 -15 15 -22 10 -8 19 -18 19 -23 0 -14 22 -32 58 -48 17 -7
32 -17 32 -21 0 -5 20 -8 44 -8 25 0 48 -4 51 -10 3 -5 28 -10 55 -10 27 0 52
5 55 10 3 6 22 10 41 10 19 0 34 5 34 10 0 6 8 10 18 10 20 0 92 62 92 79 0 6
5 11 10 11 6 0 10 14 10 30 l0 30 -83 0 c-69 0 -87 -3 -105 -20 -17 -16 -35
-20 -87 -20 -37 0 -65 4 -65 10 0 6 -7 10 -15 10 -11 0 -15 12 -15 45 l0 45
195 0 195 0 0 37 c0 49 -37 163 -52 163 -5 0 -8 9 -8 20 0 11 -7 20 -15 20 -8
0 -15 4 -15 9 0 5 -17 17 -37 26 -21 10 -40 21 -43 25 -8 11 -149 19 -200 11z"/>
<path d="M4627 1504 c-4 -4 -7 -128 -7 -276 l0 -268 90 0 90 0 0 145 c0 90 4
145 10 145 6 0 10 8 10 18 1 23 34 62 54 62 9 0 16 5 16 10 0 14 73 13 87 -1
7 -7 19 -9 27 -6 13 5 16 23 16 92 l0 85 -53 0 c-39 0 -61 -6 -89 -25 -20 -14
-42 -25 -47 -25 -6 0 -11 -4 -11 -10 0 -5 -4 -10 -9 -10 -6 0 -11 15 -13 33
l-3 32 -80 3 c-45 1 -84 0 -88 -4z"/>
<path d="M4053 1486 c-13 -6 -23 -14 -23 -18 0 -5 -7 -8 -16 -8 -19 0 -94 -76
-94 -96 0 -8 -4 -14 -10 -14 -5 0 -10 -16 -10 -35 0 -19 -4 -35 -10 -35 -13 0
-13 -67 -1 -72 6 -1 11 -24 12 -50 2 -26 6 -45 11 -42 4 3 8 0 8 -5 0 -11 35
-55 58 -75 8 -6 24 -22 37 -34 17 -17 30 -22 44 -17 15 5 21 2 21 -9 0 -22
115 -23 124 -1 3 8 12 12 20 9 9 -3 26 5 41 20 14 14 36 26 48 26 18 0 19 2 7
10 -23 15 -50 12 -50 -5 0 -8 -9 -15 -20 -15 -11 0 -20 7 -20 15 0 8 5 15 11
15 6 0 8 9 4 20 -5 16 -2 20 20 20 14 0 28 -7 31 -15 4 -8 10 -12 15 -9 14 8
10 24 -6 24 -8 0 -14 3 -14 8 3 18 -2 32 -12 32 -5 0 -7 -4 -4 -10 3 -5 -1
-11 -9 -11 -36 -3 -41 -6 -38 -19 2 -11 -2 -10 -11 3 -10 12 -29 17 -66 17
-28 0 -51 -4 -51 -10 0 -9 14 -14 33 -11 4 0 7 -3 7 -9 0 -5 7 -10 15 -10 8 0
15 4 15 10 0 6 10 5 25 -2 29 -13 32 -23 8 -32 -14 -6 -15 -9 -4 -15 24 -15 4
-48 -29 -49 -17 0 -30 4 -30 10 0 6 -12 8 -29 5 -17 -4 -36 0 -47 8 -18 13
-18 14 1 21 33 12 48 44 20 44 -8 0 -15 6 -15 13 0 6 -6 1 -13 -13 -14 -29
-47 -40 -47 -16 0 10 -9 16 -25 16 -17 0 -23 4 -19 14 3 7 -7 23 -21 34 -27
22 -26 42 2 42 14 0 13 4 -5 20 -12 12 -22 30 -22 41 0 11 -4 17 -10 14 -5 -3
-10 3 -10 15 0 12 5 18 10 15 9 -6 15 37 11 73 -1 6 5 12 14 12 11 0 15 -12
16 -52 1 -29 1 -56 1 -60 -2 -8 27 -32 33 -26 2 2 -2 17 -10 32 -18 33 -16 83
2 90 9 4 13 -4 13 -24 0 -16 4 -32 10 -35 5 -3 9 -24 8 -45 -1 -29 4 -45 19
-57 11 -10 25 -28 32 -40 12 -23 41 -32 41 -13 0 6 -4 10 -9 10 -5 0 -13 10
-17 23 -4 12 -15 29 -25 38 -20 18 -25 39 -9 39 6 0 10 10 10 23 0 13 9 33 19
44 11 12 17 23 14 27 -3 3 8 13 26 23 17 10 31 26 31 36 0 15 -7 17 -50 14
-28 -2 -56 -9 -62 -15 -7 -7 -18 -12 -25 -12 -7 0 -13 -4 -13 -10 0 -5 -9 -10
-20 -10 -11 0 -20 4 -20 8 0 12 65 77 81 80 8 2 16 8 17 13 2 5 12 9 23 9 10
0 19 5 19 11 0 7 13 8 38 4 20 -3 51 -8 67 -11 17 -2 32 -9 33 -14 2 -6 12
-10 23 -10 12 0 19 -7 19 -20 0 -21 -21 -25 -94 -20 -20 1 -27 -2 -24 -12 3
-8 17 -12 41 -10 22 2 37 -1 37 -7 0 -6 7 -11 16 -11 23 0 74 -56 74 -81 0
-12 5 -19 13 -17 15 6 22 48 7 48 -6 0 -8 5 -5 10 3 6 -1 10 -10 10 -9 0 -14
3 -12 8 6 10 -30 42 -39 34 -3 -4 -4 0 -2 8 3 8 10 14 16 13 6 -2 16 6 22 17
16 31 30 24 30 -16 0 -21 4 -33 10 -29 6 3 10 22 10 41 0 33 -1 34 -43 34 -31
0 -46 5 -57 20 -8 11 -22 20 -32 20 -9 0 -20 5 -23 10 -8 13 -124 11 -152 -4z"/>
<path d="M4433 1462 c10 -10 17 -24 17 -30 0 -7 5 -12 10 -12 6 0 10 -7 10
-15 0 -8 -5 -15 -11 -15 -7 0 -9 -57 -7 -174 3 -156 -1 -200 -17 -184 -3 2 -8
32 -11 66 -7 66 -20 83 -22 29 -1 -18 -8 -46 -16 -61 -12 -24 -15 -25 -19 -9
-3 10 -5 2 -6 -19 -1 -31 -4 -35 -21 -31 -14 4 -20 0 -20 -11 0 -15 11 -16 83
-14 l82 3 3 248 2 247 -36 0 c-35 0 -36 -1 -21 -18z"/>
</g>
</svg>
